External Loads File
version=1
nRows=77
nColumns=13
Range=5.000000e-03-10 seconds
endheader
time 	forceRightX 	forceRightY 	forceRightZ 	pointRightX 	pointRightY 	pointRightZ 	forceLeftX 	forceLeftY 	forceLeftZ 	pointLeftX 	pointLeftY 	pointLeftZ 		
0.005000 53.596526 190.987905 -0.000000 0.131101 0.313430 -0.123999 -105.194055 176.726223 -0.000000 0.457667 0.335767 -0.366914
0.010000 54.532330 190.447466 -0.000000 0.131086 0.313465 -0.123993 -105.486552 176.557142 -0.000000 0.457677 0.335723 -0.366914
0.015000 55.385387 189.933350 -0.000000 0.131092 0.313497 -0.123999 -105.774674 176.397185 -0.000000 0.457682 0.335692 -0.366913
0.020000 56.113860 189.457851 -0.000000 0.131085 0.313529 -0.123995 -106.028459 176.283614 -0.000000 0.457686 0.335668 -0.366914
0.025000 56.699770 189.040784 -0.000000 0.131069 0.313820 -0.123917 -106.249694 176.221492 -0.000000 0.457577 0.335923 -0.366992
0.030000 57.214107 188.680366 -0.000000 0.131059 0.313902 -0.123901 -106.397169 176.230540 -0.000000 0.457571 0.335931 -0.367007
0.035000 57.674918 188.385098 -0.000000 0.131055 0.313962 -0.123898 -106.502329 176.285345 -0.000000 0.457570 0.335902 -0.367013
0.040000 58.071569 188.157457 -0.000000 0.131034 0.313991 -0.123911 -106.618339 176.351066 -0.000000 0.457582 0.335888 -0.367013
0.045000 58.445041 187.972335 -0.000000 0.131016 0.314023 -0.123895 -106.718217 176.437119 -0.000000 0.457585 0.335865 -0.367013
0.050000 58.796972 187.820164 -0.000000 0.131001 0.314065 -0.123902 -106.777736 176.536645 -0.000000 0.457598 0.335844 -0.367009
0.055000 59.110226 187.706348 -0.000000 0.131000 0.314085 -0.123898 -106.777249 176.637142 -0.000000 0.457606 0.335821 -0.367015
0.060000 59.369955 187.635316 -0.000000 0.131003 0.314109 -0.123890 -106.709075 176.740144 -0.000000 0.457612 0.335819 -0.367013
0.065000 59.572517 187.601967 -0.000000 0.130993 0.314111 -0.123893 -106.588061 176.854816 -0.000000 0.457614 0.335789 -0.367013
0.070000 59.695325 187.603724 -0.000000 0.130996 0.314111 -0.123884 -106.478608 176.959770 -0.000000 0.457615 0.335806 -0.367007
0.075000 59.809327 187.608190 -0.000000 0.131008 0.314120 -0.123870 -106.364032 177.064634 -0.000000 0.457609 0.335813 -0.367012
0.080000 59.930011 187.602733 -0.000000 0.130999 0.314116 -0.123886 -106.264919 177.140820 -0.000000 0.457611 0.335815 -0.367012
0.085000 60.058601 187.580917 -0.000000 0.131022 0.314105 -0.123890 -106.199273 177.163150 -0.000000 0.457610 0.335829 -0.367018
0.090000 60.206092 187.534909 -0.000000 0.131018 0.314092 -0.123896 -106.161864 177.132521 -0.000000 0.457603 0.335827 -0.367012
0.095000 60.317751 187.483096 -0.000000 0.131044 0.314076 -0.123889 -106.192328 177.032027 -0.000000 0.457611 0.335859 -0.367015
0.100000 60.402381 187.431385 -0.000000 0.131052 0.314062 -0.123887 -106.260035 176.893552 -0.000000 0.457605 0.335881 -0.367020
0.105000 60.433956 187.400171 -0.000000 0.131058 0.314036 -0.123882 -106.370165 176.727964 -0.000000 0.457607 0.335909 -0.367015
0.110000 60.447434 187.381832 -0.000000 0.131072 0.314018 -0.123887 -106.477232 176.564613 -0.000000 0.457609 0.335916 -0.367028
0.115000 60.435437 187.370290 -0.000000 0.131075 0.314003 -0.123888 -106.584193 176.393145 -0.000000 0.457613 0.335935 -0.367024
0.120000 60.414322 187.346946 -0.000000 0.131088 0.313985 -0.123874 -106.677528 176.216587 -0.000000 0.457613 0.335955 -0.367026
0.125000 60.392290 187.296668 -0.000000 0.131084 0.313982 -0.123881 -106.741910 176.047843 -0.000000 0.457608 0.335977 -0.367017
0.130000 60.333097 187.220250 -0.000000 0.131078 0.313945 -0.123882 -106.789169 175.886185 -0.000000 0.457614 0.335995 -0.367024
0.135000 60.261692 187.100770 -0.000000 0.131090 0.313948 -0.123875 -106.772971 175.757471 -0.000000 0.457626 0.336004 -0.367030
0.140000 60.136147 186.950433 -0.000000 0.131082 0.313950 -0.123897 -106.728400 175.626508 -0.000000 0.457628 0.336026 -0.367022
0.145000 59.976903 186.773510 -0.000000 0.131078 0.313938 -0.123885 -106.661730 175.481284 -0.000000 0.457648 0.336042 -0.367030
0.150000 59.833257 186.570269 -0.000000 0.131059 0.313951 -0.123891 -106.562877 175.334776 -0.000000 0.457650 0.336048 -0.367027
0.155000 59.697766 186.357124 -0.000000 0.131054 0.313950 -0.123895 -106.458559 175.179002 -0.000000 0.457669 0.336045 -0.367015
0.160000 59.557235 186.151654 -0.000000 0.131044 0.313948 -0.123884 -106.364875 175.008655 -0.000000 0.457668 0.336066 -0.367020
0.165000 59.422851 185.962695 -0.000000 0.131040 0.313935 -0.123893 -106.264496 174.844260 -0.000000 0.457677 0.336063 -0.367024
0.170000 59.271325 185.805979 -0.000000 0.131015 0.313940 -0.123890 -106.164272 174.701353 -0.000000 0.457677 0.336063 -0.367029
0.175000 59.070171 185.699730 -0.000000 0.130997 0.313942 -0.123892 -106.094881 174.590976 -0.000000 0.457710 0.336085 -0.367069
0.180000 58.856752 185.647462 -0.000000 0.130981 0.313936 -0.123880 -106.058733 174.547129 -0.000000 0.457707 0.336087 -0.367081
0.185000 58.659802 185.661561 -0.000000 0.130951 0.313932 -0.123868 -106.083920 174.579742 -0.000000 0.457710 0.336105 -0.367083
0.190000 58.517062 185.747480 -0.000000 0.130941 0.313925 -0.123862 -106.172450 174.695450 -0.000000 0.457704 0.336122 -0.367065
0.195000 58.452318 185.902995 -0.000000 0.130927 0.313922 -0.123858 -106.312455 174.893089 -0.000000 0.457696 0.336130 -0.367066
0.200000 58.423079 186.129285 -0.000000 0.130895 0.313901 -0.123870 -106.521285 175.141330 -0.000000 0.457680 0.336171 -0.367084
0.205000 58.443335 186.393454 -0.000000 0.130906 0.313887 -0.123866 -106.723616 175.452305 -0.000000 0.457670 0.336181 -0.367092
0.210000 58.424543 186.688317 -0.000000 0.130903 0.313845 -0.123876 -106.930121 175.779073 -0.000000 0.457656 0.336209 -0.367084
0.215000 58.367122 186.981487 -0.000000 0.130892 0.313811 -0.123864 -107.099965 176.110342 -0.000000 0.457626 0.336239 -0.367088
0.220000 58.266556 187.252983 -0.000000 0.130893 0.313774 -0.123868 -107.238465 176.416487 -0.000000 0.457623 0.336266 -0.367085
0.225000 58.109838 187.502642 -0.000000 0.130903 0.313720 -0.123875 -107.385905 176.658227 -0.000000 0.457593 0.336332 -0.367081
0.230000 58.012207 187.704011 -0.000000 0.130909 0.313693 -0.123878 -107.482571 176.869859 -0.000000 0.457587 0.336358 -0.367097
0.235000 57.977849 187.870435 -0.000000 0.130917 0.313645 -0.123863 -107.587701 177.018905 -0.000000 0.457564 0.336381 -0.367098
0.240000 58.083914 187.990988 -0.000000 0.130915 0.313628 -0.123872 -107.676660 177.116778 -0.000000 0.457569 0.336400 -0.367095
0.245000 58.295951 188.075944 -0.000000 0.130927 0.313599 -0.123859 -107.785024 177.128376 -0.000000 0.457565 0.336436 -0.367106
0.250000 58.604199 188.107468 -0.000000 0.130928 0.313555 -0.123860 -107.880294 177.058778 -0.000000 0.457583 0.336442 -0.367096
0.255000 58.936062 188.080507 -0.000000 0.130931 0.313544 -0.123861 -107.968107 176.895359 -0.000000 0.457589 0.336491 -0.367094
0.260000 59.295622 187.979939 -0.000000 0.130932 0.313526 -0.123865 -107.984939 176.672528 -0.000000 0.457615 0.336491 -0.367095
0.265000 59.628811 187.824736 -0.000000 0.130936 0.313513 -0.123887 -107.933091 176.390966 -0.000000 0.457640 0.336531 -0.367095
0.270000 59.951457 187.617716 -0.000000 0.130938 0.313485 -0.123889 -107.761499 176.092817 -0.000000 0.457697 0.336541 -0.367119
0.275000 60.214220 187.383451 -0.000000 0.130936 0.313444 -0.123907 -107.500990 175.778498 -0.000000 0.457718 0.336560 -0.367113
0.280000 60.402808 187.138680 -0.000000 0.130936 0.313428 -0.123898 -107.179154 175.460579 -0.000000 0.457734 0.336601 -0.367102
0.285000 60.502561 186.908625 -0.000000 0.130933 0.313406 -0.123899 -106.851889 175.139525 -0.000000 0.457747 0.336637 -0.367109
0.290000 60.538777 186.713483 -0.000000 0.130930 0.313362 -0.123898 -106.554700 174.823358 -0.000000 0.457762 0.336639 -0.367110
0.295000 60.542623 186.569168 -0.000000 0.130914 0.313345 -0.123896 -106.319801 174.516721 -0.000000 0.457782 0.336661 -0.367100
0.300000 60.502156 186.491965 -0.000000 0.130912 0.313285 -0.123902 -106.203244 174.206814 -0.000000 0.457790 0.336699 -0.367102
0.305000 60.496857 186.449456 -0.000000 0.130903 0.313267 -0.123901 -106.141808 173.950076 -0.000000 0.457795 0.336723 -0.367103
0.310000 60.445303 186.445164 -0.000000 0.130882 0.313208 -0.123902 -106.182555 173.728346 -0.000000 0.457796 0.336757 -0.367107
0.315000 60.372642 186.444543 -0.000000 0.130869 0.313195 -0.123904 -106.245622 173.583656 -0.000000 0.457804 0.336785 -0.367095
0.320000 60.229893 186.448011 -0.000000 0.130862 0.313169 -0.123898 -106.326042 173.497098 -0.000000 0.457799 0.336805 -0.367096
0.325000 60.008970 186.459791 -0.000000 0.130836 0.313133 -0.123902 -106.423438 173.455899 -0.000000 0.457784 0.336853 -0.367107
0.330000 59.782949 186.473694 -0.000000 0.130829 0.313122 -0.123903 -106.511737 173.487927 -0.000000 0.457760 0.336883 -0.367101
0.335000 59.560031 186.514785 -0.000000 0.130824 0.313089 -0.123901 -106.648884 173.579967 -0.000000 0.457738 0.336918 -0.367106
0.340000 59.394608 186.593632 -0.000000 0.130795 0.313048 -0.123884 -106.840298 173.738691 -0.000000 0.457709 0.336965 -0.367119
0.345000 59.336802 186.710003 -0.000000 0.130791 0.313000 -0.123881 -107.057979 173.970831 -0.000000 0.457682 0.336994 -0.367112
0.350000 59.378857 186.862989 -0.000000 0.130793 0.312974 -0.123886 -107.279486 174.264655 -0.000000 0.457645 0.337036 -0.367111
0.355000 59.446074 187.057095 -0.000000 0.130762 0.312905 -0.123871 -107.510782 174.585454 -0.000000 0.457617 0.337086 -0.367103
0.360000 59.531188 187.268126 -0.000000 0.130754 0.312857 -0.123868 -107.681972 174.943501 -0.000000 0.457593 0.337109 -0.367110
0.365000 59.553174 187.495167 -0.000000 0.130743 0.312838 -0.123865 -107.795520 175.302901 -0.000000 0.457576 0.337151 -0.367115
0.370000 59.453234 187.737225 -0.000000 0.130747 0.312798 -0.123884 -107.862034 175.628624 -0.000000 0.457544 0.337201 -0.367103
0.375000 59.272428 187.974128 -0.000000 0.130734 0.312760 -0.123870 -107.847212 175.924558 -0.000000 0.457545 0.337212 -0.367107
0.380000 59.020665 188.200905 -0.000000 0.130734 0.312746 -0.123875 -107.778688 176.157953 -0.000000 0.457539 0.337240 -0.367108
0.385000 58.743905 188.391642 -0.000000 0.130710 0.312738 -0.123894 -107.650808 176.308592 -0.000000 0.457531 0.337256 -0.367101
